<svg width="90" height="90" viewBox="0 0 90 90" fill="none" xmlns="http://www.w3.org/2000/svg">
<path d="M83.8461 54.6511C78.5086 76.0665 56.8183 89.1436 35.3635 83.8028C13.9479 78.449 0.8919 56.7586 6.22944 35.3431C11.567 13.9276 33.2442 0.850533 54.6467 6.19131C76.1146 11.4666 89.1706 33.2225 83.8461 54.6511Z" fill="#F0B90B"/>
<path d="M51.3756 26.0344L45.2 19.71L29.6494 35.4094L35.825 41.585L51.3756 26.0344Z" fill="white"/>
<path d="M60.7506 35.4094L54.575 29.085L29.6494 54.1594L35.825 60.335L60.7506 35.4094Z" fill="white"/>
<path d="M26.45 38.46L32.6256 44.7844L26.45 50.96L20.2744 44.7844L26.45 38.46Z" fill="white"/>
<path d="M70.1256 44.7844L63.95 38.46L39.0244 63.5344L45.2 69.71L70.1256 44.7844Z" fill="white"/>
</svg>
