<svg width="90" height="90" viewBox="0 0 90 90" fill="none" xmlns="http://www.w3.org/2000/svg">
<path d="M83.8461 54.6511C78.5086 76.0665 56.8183 89.1436 35.3635 83.8028C13.9479 78.449 0.8919 56.7586 6.22944 35.3431C11.567 13.9276 33.2442 0.850533 54.6467 6.19131C76.1146 11.4666 89.1706 33.2225 83.8461 54.6511Z" fill="#0AC18E"/>
<path d="M58.0081 32.1867C55.9061 27.4071 51.0639 26.3936 45.1332 27.3821L43.2314 20L38.7396 21.1636L40.6164 28.5207C39.4403 28.821 38.2266 29.0712 37.0255 29.409L35.1487 22.0895L30.6569 23.2531L32.5587 30.6352C31.5953 30.9105 23.5 32.9875 23.5 32.9875L24.7387 37.7921C24.7387 37.7921 28.0419 36.8662 28.0043 36.9413C29.8311 36.4658 30.6944 37.3792 31.0948 38.2425L36.3248 58.4745C36.3874 59.0626 36.2873 60.0635 35.0235 60.4013C35.0986 60.4389 31.7579 61.2397 31.7579 61.2397L32.2459 66.845C32.2459 66.845 40.2661 64.7931 41.3171 64.5303L43.2439 72L47.7357 70.8364L45.8089 63.3167C47.0476 63.0289 48.2487 62.7286 49.4123 62.4283L51.3267 69.9105L55.8185 68.7469L53.8916 61.2897C60.8108 59.6131 65.6905 55.2464 64.6895 48.5775C64.0514 44.5611 59.6597 41.2579 56.0062 40.8826C58.2583 38.8932 59.3969 35.9904 58.0081 32.1867ZM55.8435 49.7911C56.7319 56.3975 47.5606 57.2108 44.5202 57.999L41.8801 48.1145C44.9331 47.3263 54.3421 43.9731 55.8435 49.7911ZM50.3132 36.3407C51.2641 42.2089 43.4066 42.897 40.8792 43.5476L38.4769 34.5765C41.0168 33.9384 48.3864 30.898 50.3132 36.3407Z" fill="white"/>
</svg>
