<svg width="90" height="90" viewBox="0 0 90 90" fill="none" xmlns="http://www.w3.org/2000/svg">
<path d="M83.8461 54.6511C78.5086 76.0665 56.8183 89.1436 35.3635 83.8028C13.9479 78.449 0.8919 56.7586 6.22944 35.3431C11.567 13.9276 33.2442 0.850533 54.6467 6.19131C76.1146 11.4666 89.1706 33.2225 83.8461 54.6511Z" fill="#375BD2"/>
<path d="M45.2674 28.2889L59.8474 36.6145V53.3322L45.3076 61.7112L30.7276 53.3989V36.681L45.2674 28.2889ZM45.2674 16L39.917 19.0855L25.3504 27.4777L20 30.5632V36.7076V53.4121V59.5565L25.3504 62.6156L39.9304 70.9411L45.2808 74L50.6313 70.9145L65.1711 62.5225L70.5215 59.4502V53.3058V36.5879V30.4435L65.1711 27.3846L50.5912 19.0589L45.2408 16H45.2674Z" fill="white"/>
</svg>
