<svg width="90" height="90" viewBox="0 0 90 90" fill="none" xmlns="http://www.w3.org/2000/svg">
<path d="M44.5005 84.9575C66.5685 84.9575 84.4581 67.0679 84.4581 44.9999C84.4581 22.932 66.5685 5.04236 44.5005 5.04236C22.4326 5.04236 4.54297 22.932 4.54297 44.9999C4.54297 67.0679 22.4326 84.9575 44.5005 84.9575Z" fill="#008DE4"/>
<path d="M32.9704 22.6204H53.051C70.6968 22.6204 73.8188 32.2492 71.3161 45.7805C69.6364 54.8664 65.437 61.8314 58.3787 65.0891C55.1973 66.5567 52.1942 67.3796 45.1273 67.3796H25.0977L26.7689 58.0732L44.3808 58.0817C54.9683 58.0986 57.7933 53.5005 59.1676 49.4793C59.6851 47.9692 60.8728 43.3118 60.9153 40.5546C60.9916 35.1845 58.3532 31.9438 49.4285 31.9438L31.3076 31.9183L32.9704 22.6204Z" fill="white"/>
<path d="M17.8192 45.7624C18.3121 43.6863 19.1078 40.334 24.3097 40.334H44.8654C44.8654 40.334 44.6533 41.4284 44.0001 44.1431C43.9946 44.1659 43.9892 44.1889 43.9837 44.212C43.4908 46.2882 42.695 49.6405 37.4932 49.6405H16.9375C16.9375 49.6405 17.1496 48.5461 17.8028 45.8313C17.8082 45.8085 17.8137 45.7856 17.8192 45.7624Z" fill="white"/>
</svg>
