<svg width="90" height="90" viewBox="0 0 90 90" fill="none" xmlns="http://www.w3.org/2000/svg">
<path d="M83.8461 54.6511C78.5086 76.0665 56.8183 89.1436 35.3635 83.8028C13.9479 78.449 0.8919 56.7586 6.22944 35.3431C11.567 13.9276 33.2442 0.850533 54.6467 6.19131C76.1146 11.4666 89.1706 33.2225 83.8461 54.6511Z" fill="#345D9D"/>
<path d="M41.0736 61.2029L45.0549 47.7774L51.2584 46.0182L52.5546 41.5739L46.4437 43.4257L52.925 21.3895V21.0377C52.9202 20.8966 52.8877 20.7578 52.8292 20.6294C52.7708 20.5009 52.6876 20.3852 52.5844 20.2889C52.4812 20.1925 52.36 20.1175 52.2278 20.0681C52.0956 20.0186 51.955 19.9957 51.8139 20.0007H43.5735C43.2615 19.991 42.9553 20.0861 42.7036 20.2707C42.4519 20.4552 42.2692 20.7187 42.1846 21.0191L34.4997 47.1293L28.3888 48.9811L27 53.2402L33.1109 51.3884L27.6481 69.9988H60.2395C60.5522 70.0118 60.86 69.918 61.1124 69.7329C61.3648 69.5479 61.5467 69.2825 61.6284 68.9803L63.4801 62.5917V62.2398C63.4754 62.0988 63.4428 61.96 63.3844 61.8315C63.3259 61.7031 63.2428 61.5874 63.1396 61.491C63.0364 61.3947 62.9152 61.3197 62.783 61.2703C62.6508 61.2208 62.5101 61.1979 62.3691 61.2029H41.0736Z" fill="white"/>
</svg>
