<svg width="90" height="90" viewBox="0 0 90 90" fill="none" xmlns="http://www.w3.org/2000/svg">
<path d="M83.8461 54.6511C78.5086 76.0665 56.8183 89.1436 35.3635 83.8028C13.9479 78.449 0.8919 56.7586 6.22944 35.3431C11.567 13.9276 33.2442 0.850533 54.6467 6.19131C76.1146 11.4666 89.1706 33.2225 83.8461 54.6511Z" fill="#E6007A"/>
<path d="M54.2436 23.663C54.2436 26.7907 49.8842 29.3261 44.5066 29.3261C39.129 29.3261 34.7695 26.7907 34.7695 23.663C34.7695 20.5354 39.129 18 44.5066 18C49.8842 18 54.2436 20.5354 54.2436 23.663Z" fill="white"/>
<path d="M54.2436 66.3331C54.2436 69.4607 49.8842 71.9961 44.5066 71.9961C39.129 71.9961 34.7695 69.4607 34.7695 66.3331C34.7695 63.2055 39.129 60.67 44.5066 60.67C49.8842 60.67 54.2436 63.2055 54.2436 66.3331Z" fill="white"/>
<path d="M30.9374 37.1651C33.6262 32.5081 33.6088 27.4642 30.8985 25.8994C28.1881 24.3345 23.8112 26.8412 21.1224 31.4982C18.4336 36.1553 18.4511 41.1991 21.1614 42.764C23.8717 44.3288 28.2486 41.8221 30.9374 37.1651Z" fill="white"/>
<path d="M67.8512 47.2338C70.5597 48.7976 70.5757 53.8405 67.8869 58.4976C65.198 63.1546 60.8227 65.6622 58.1142 64.0984C55.4056 62.5346 55.3897 57.4916 58.0785 52.8345C60.7673 48.1775 65.1427 45.6699 67.8512 47.2338Z" fill="white"/>
<path d="M30.9004 64.0971C33.6107 62.5322 33.6282 57.4884 30.9394 52.8313C28.2506 48.1743 23.8737 45.6676 21.1634 47.2325C18.453 48.7973 18.4356 53.8412 21.1244 58.4982C23.8132 63.1553 28.1901 65.662 30.9004 64.0971Z" fill="white"/>
<path d="M67.8888 31.5013C70.5776 36.1583 70.5617 41.2013 67.8531 42.7652C65.1446 44.329 60.7693 41.8214 58.0804 37.1644C55.3916 32.5073 55.4076 27.4643 58.1161 25.9005C60.8246 24.3367 65.2 26.8443 67.8888 31.5013Z" fill="white"/>
</svg>
