<svg width="90" height="90" viewBox="0 0 90 90" fill="none" xmlns="http://www.w3.org/2000/svg">
<path d="M83.8461 54.6511C78.5086 76.0665 56.8183 89.1436 35.3635 83.8028C13.9479 78.449 0.8919 56.7586 6.22944 35.3431C11.567 13.9276 33.2442 0.850533 54.6467 6.19131C76.1146 11.4666 89.1706 33.2225 83.8461 54.6511Z" fill="#000008"/>
<path d="M72 33.4482L29.3703 55.1652L25.6412 57.0298L18 60.9417V65.6215L25.6046 61.7461L32.1124 58.4191L63.5545 42.4055C64.9072 52.6425 57.7048 62.0386 47.4678 63.3913C46.6635 63.501 45.8226 63.5741 44.9817 63.5741C41.8009 63.5741 38.6567 62.7332 35.8416 61.1611L35.6222 61.3074L31.6005 63.3182C41.8009 70.74 56.0961 68.4732 63.5179 58.2363C66.3331 54.3608 67.8687 49.6811 67.8687 44.8551C67.8687 44.2701 67.8687 43.6852 67.7955 43.1002C67.6859 41.4184 68.5633 39.8463 70.0623 39.0785L72 38.0548V33.4482ZM64.3954 28.0007L57.8876 31.2911L26.4821 47.3047C25.1293 37.0677 32.3683 27.6716 42.6053 26.3189C46.5904 25.807 50.6486 26.5748 54.1584 28.5491L57.8876 26.6479L58.436 26.3555C48.2356 18.9337 33.9404 21.237 26.5186 31.4374C23.6669 35.3494 22.1679 40.0291 22.1679 44.8551C22.1679 45.4401 22.1679 46.025 22.2045 46.61C22.3507 48.2552 21.4733 49.8639 19.9743 50.6317L18 51.6188V56.2986L23.7766 53.3371L25.6412 52.3866L27.5058 51.4726L60.5931 34.5816L64.3223 32.6804L72 28.7685V24.0887L64.3954 28.0007Z" fill="white"/>
</svg>
