<svg width="90" height="90" viewBox="0 0 90 90" fill="none" xmlns="http://www.w3.org/2000/svg">
<path d="M83.8461 54.6511C78.5086 76.0665 56.8183 89.1436 35.3635 83.8028C13.9479 78.449 0.8919 56.7586 6.22944 35.3431C11.567 13.9276 33.2442 0.850533 54.6467 6.19131C76.1146 11.4666 89.1706 33.2225 83.8461 54.6511Z" fill="url(#paint0_linear_1160_23384)"/>
<path fill-rule="evenodd" clip-rule="evenodd" d="M23.1572 18.7725C28.804 25.6952 35.0041 34.3922 36.0069 35.7989C36.0604 35.8739 36.0991 35.9282 36.1221 35.9603C36.6567 36.7067 37.098 37.2615 37.4332 37.6828C38.1772 38.6181 38.3979 38.8957 37.954 39.1506C37.5959 39.3562 37.2265 39.424 36.8579 39.424C36.441 39.424 35.9713 39.2212 35.6293 38.8935C35.3875 38.6619 33.7333 36.2352 31.4809 32.705C29.7574 30.0038 28.3151 27.763 28.2757 27.7255C28.1848 27.6387 28.1863 27.6416 31.3052 33.2783C33.2635 36.8177 34.6031 39.4333 34.6031 39.6006C34.6031 39.941 34.5111 40.1199 34.0954 40.5883C33.4024 41.3693 33.0926 42.2467 32.869 44.0625C32.6183 46.098 31.9134 47.5361 29.9598 49.9969C28.8162 51.4376 28.6291 51.7016 28.3405 52.2823C27.9771 53.0135 27.8771 53.423 27.8366 54.3463C27.7938 55.3226 27.8772 55.9532 28.1725 56.8865C28.431 57.7036 28.7008 58.2433 29.3906 59.3225C29.9859 60.2536 30.3287 60.9457 30.3287 61.2165C30.3287 61.432 30.3694 61.4322 31.2918 61.2219C33.4994 60.7182 35.2919 59.8328 36.3001 58.7475C36.924 58.0756 37.0705 57.7048 37.0752 56.7842C37.0784 56.1821 37.0574 56.0561 36.8963 55.7097C36.6339 55.1458 36.1564 54.6771 35.104 53.9504C33.725 52.9981 33.136 52.2316 32.9733 51.1774C32.8399 50.3125 32.9947 49.7021 33.7576 48.0871C34.5472 46.4154 34.7428 45.7031 34.8752 44.018C34.9607 42.9293 35.0791 42.5 35.3887 42.1555C35.7117 41.7962 36.0024 41.6744 36.8017 41.564C38.1047 41.3843 38.9344 41.0438 39.6164 40.409C40.208 39.8583 40.4556 39.3277 40.4936 38.5289L40.5224 37.9234L40.1918 37.5341C38.9945 36.124 22.3554 17.6641 22.2817 17.6641C22.266 17.6641 22.66 18.1629 23.1572 18.7725ZM31.0008 55.4509C31.2715 54.9665 31.1277 54.3442 30.6748 54.0399C30.247 53.7526 29.5824 53.888 29.5824 54.2625C29.5824 54.3767 29.6449 54.4598 29.7859 54.5333C30.0233 54.6567 30.0405 54.7954 29.8538 55.0789C29.6646 55.3662 29.6799 55.6186 29.8968 55.79C30.2465 56.0667 30.7415 55.9146 31.0008 55.4509ZM39.1489 29.0437C38.6147 28.96 38.5922 28.9502 38.8435 28.9112C39.3253 28.8363 40.4627 28.9383 41.2466 29.1266C43.0765 29.5659 44.7416 30.6914 46.519 32.6904L46.9911 33.2214L47.6667 33.1117C50.5125 32.6498 53.4075 33.0169 55.829 34.1468C56.4952 34.4576 57.5454 35.0764 57.6766 35.2354C57.7183 35.2861 57.7953 35.6123 57.8471 35.9603C58.027 37.1646 57.937 38.0877 57.5723 38.7771C57.374 39.1522 57.3629 39.2711 57.4962 39.5922C57.6026 39.8484 57.8996 40.038 58.1937 40.0376C58.7953 40.0368 59.4429 39.0543 59.7432 37.6872L59.8623 37.1441L60.0985 37.4143C61.3937 38.8967 62.4112 40.9182 62.5859 42.3571L62.6314 42.7322L62.4138 42.3913C62.0389 41.8044 61.6626 41.4048 61.1803 41.0826C60.3114 40.5018 59.3923 40.3041 56.9588 40.1746C54.7608 40.0576 53.517 39.8679 52.2836 39.4617C50.1847 38.7705 49.1269 37.85 46.6339 34.5464C45.5267 33.079 44.8423 32.2671 44.1615 31.6133C42.6146 30.1277 41.0946 29.3485 39.1489 29.0437ZM58.1723 32.32C58.2276 31.3367 58.3597 30.6882 58.6251 30.0959C58.7301 29.8614 58.8285 29.6695 58.8436 29.6695C58.8589 29.6695 58.8132 29.8426 58.7421 30.0541C58.5493 30.6289 58.5175 31.4151 58.6505 32.3298C58.8191 33.4905 58.9152 33.658 60.1296 34.9117C60.6992 35.4998 61.3619 36.2415 61.6021 36.5599L62.0389 37.1389L61.6021 36.7251C61.068 36.2191 59.8397 35.2322 59.5684 35.0912C59.3864 34.9966 59.3593 34.9982 59.2472 35.111C59.1439 35.215 59.122 35.3712 59.1076 36.1097C59.0852 37.2606 58.93 37.9994 58.5552 38.7381C58.3524 39.1376 58.3204 39.0523 58.5038 38.6014C58.6409 38.2647 58.6548 38.1166 58.6538 37.0024C58.6517 34.7638 58.3884 34.2256 56.8453 33.3036C56.4547 33.07 55.8104 32.7332 55.4141 32.555C55.018 32.3768 54.7031 32.2217 54.7144 32.2101C54.7582 32.1661 56.2632 32.6098 56.8689 32.8451C57.7698 33.1952 57.9184 33.2406 58.0279 33.1983C58.1011 33.17 58.1367 32.9543 58.1723 32.32ZM38.5763 30.6013C38.4311 32.3297 39.102 34.6418 40.1864 36.1498C41.0271 37.3187 42.3301 38.2271 43.2922 38.3149C43.9221 38.3723 44.1114 38.1731 43.8264 37.7528C43.4308 37.1691 42.9442 36.2705 42.8154 35.8858C42.7354 35.6468 42.5616 34.9408 42.4291 34.3169C41.9767 32.1869 41.5321 31.3575 40.5051 30.7275C40.1309 30.4978 39.3316 30.1974 38.8681 30.112L38.6213 30.0665L38.5763 30.6013ZM56.8571 47.3729C51.7893 45.312 50.0043 43.523 50.0043 40.5045C50.0043 40.0603 50.0196 39.6969 50.038 39.6969C50.0566 39.6969 50.2525 39.8434 50.4736 40.0226C51.5013 40.8552 52.6521 41.2108 55.8379 41.6801C57.7124 41.9566 58.7673 42.1796 59.7406 42.5057C62.8336 43.5418 64.7474 45.6445 65.2038 48.5086C65.3363 49.3408 65.2586 50.9014 65.0436 51.7239C64.8739 52.3736 64.3558 53.5445 64.2185 53.5894C64.1804 53.6019 64.1429 53.4545 64.1333 53.2539C64.0812 52.1784 63.5431 51.1315 62.6396 50.3471C61.6122 49.4553 60.2318 48.7455 56.8571 47.3729ZM53.0545 47.1461C53.1256 47.3602 53.2358 47.8474 53.2992 48.2291C53.7052 50.6692 52.4371 52.6407 49.9704 53.4046C49.7093 53.4854 48.6807 53.6888 47.6846 53.8562C45.6682 54.1953 44.7683 54.4355 43.8642 54.8754C43.2231 55.1874 42.4469 55.6546 42.493 55.701C42.5078 55.7161 42.6542 55.6808 42.8181 55.6226C43.9582 55.2183 45.227 55.0089 47.1548 54.9077C47.9198 54.8676 48.7899 54.8036 49.0885 54.7657C50.8059 54.5472 51.9963 54.0201 52.922 53.0686C53.437 52.539 53.744 52.0456 53.9915 51.35C54.1483 50.9087 54.1695 50.7448 54.1707 49.963C54.1721 49.1664 54.1531 49.0206 53.983 48.5305C53.7605 47.8881 53.4979 47.4061 53.1654 47.0291L52.9252 46.7569L53.0545 47.1461ZM55.6225 52.3965C54.949 50.9344 54.7945 49.5229 55.1633 48.2065C55.2028 48.0657 55.2662 47.9506 55.3046 47.9506C55.3427 47.9506 55.5014 48.0374 55.6575 48.1434C55.9677 48.3544 56.5901 48.7098 58.2478 49.6227C60.3168 50.762 61.4963 51.6441 62.2984 52.6522C63.0008 53.5348 63.4355 54.5401 63.6446 55.766C63.7633 56.4605 63.6938 58.1315 63.5175 58.8306C62.9613 61.0354 61.6685 62.7672 59.8246 63.7779C59.5545 63.9258 59.312 64.0473 59.2856 64.048C59.2595 64.0485 59.3579 63.7958 59.5044 63.4861C60.1246 62.1764 60.1953 60.9024 59.7264 59.4845C59.4392 58.6163 58.8537 57.5569 57.6716 55.7663C56.2974 53.6846 55.9604 53.1305 55.6225 52.3965ZM42.9395 57.1919C40.8081 57.5416 38.4681 58.6808 36.5875 60.2847L36.0277 60.7623L36.5197 60.84C39.0874 61.2448 39.7788 61.6039 41.5599 63.4571C42.5848 64.5234 42.931 64.7608 43.7811 64.98C45.0298 65.3019 46.2606 64.7104 46.6828 63.5853C46.8715 63.0825 46.8463 62.2501 46.6299 61.8321C46.1151 60.8367 44.6154 60.515 43.8902 61.2441C43.2861 61.8514 43.4621 62.7662 44.2134 62.9235C44.3854 62.9598 44.3805 62.952 44.1696 62.8557C43.8408 62.7055 43.6979 62.4973 43.6961 62.166C43.6919 61.3891 44.572 60.953 45.3908 61.326C45.9903 61.5994 46.2284 61.9564 46.2284 62.5823C46.2284 63.5462 45.4163 64.2724 44.4711 64.1537C43.9659 64.0901 43.3481 63.7637 43.0168 63.3856C42.1833 62.4335 42.508 60.9311 43.6718 60.3547C44.5579 59.9159 45.7356 60.024 46.6489 60.628C47.6982 61.3223 48.1445 61.9566 49.0483 64.0388C49.3426 64.7168 49.7213 65.48 49.8896 65.7347C50.7459 67.0292 51.7716 67.6641 53.0072 67.6641C53.6887 67.6641 54.2013 67.5383 54.8463 67.2131C55.3255 66.9713 56.0049 66.5118 55.9559 66.4626C55.942 66.4487 55.7433 66.5111 55.5141 66.6013C54.1651 67.1328 52.7936 67.0963 51.9972 66.5074C51.4956 66.1367 51.0911 65.3982 50.8831 64.4747C50.8471 64.3148 50.7284 63.6088 50.6192 62.9056C50.3422 61.1235 50.0764 60.3224 49.4564 59.4031C48.822 58.4625 47.6024 57.6732 46.239 57.3207C45.3883 57.1007 43.8581 57.0409 42.9395 57.1919ZM39.9543 43.413C40.1384 42.7263 40.733 42.0715 41.3447 41.8817C41.7337 41.7611 42.5377 41.8381 42.9157 42.0321C43.6484 42.4084 44.1802 43.2654 44.0648 43.884C43.924 44.6382 42.713 45.2418 41.32 45.2517C40.6084 45.2566 40.3457 45.1601 40.0739 44.7937C39.9058 44.5667 39.842 43.8319 39.9543 43.413ZM42.7287 42.3011C43.094 42.5264 43.188 42.8596 42.9732 43.1679C42.8252 43.3803 42.3671 43.5821 42.0324 43.5821C41.5294 43.5821 40.9807 43.2213 40.9807 42.891C40.9807 42.2271 42.0329 41.8718 42.7287 42.3011Z" fill="#FF007A"/>
<defs>
<linearGradient id="paint0_linear_1160_23384" x1="63" y1="81.5" x2="21.5" y2="5" gradientUnits="userSpaceOnUse">
<stop stop-color="#FAE6F2"/>
<stop offset="1" stop-color="#FDF8FC"/>
</linearGradient>
</defs>
</svg>
